<svg width="20" height="20" viewBox="0 0 20 20" fill="none" xmlns="http://www.w3.org/2000/svg">
<g id="calendar-tick">
<g id="vuesax/outline/calendar-tick">
<g id="calendar-tick_2">
<path id="Vector" d="M6.66663 4.7915C6.32496 4.7915 6.04163 4.50817 6.04163 4.1665V1.6665C6.04163 1.32484 6.32496 1.0415 6.66663 1.0415C7.00829 1.0415 7.29163 1.32484 7.29163 1.6665V4.1665C7.29163 4.50817 7.00829 4.7915 6.66663 4.7915Z" fill="#667085"/>
<path id="Vector_2" d="M13.3334 4.7915C12.9917 4.7915 12.7084 4.50817 12.7084 4.1665V1.6665C12.7084 1.32484 12.9917 1.0415 13.3334 1.0415C13.675 1.0415 13.9584 1.32484 13.9584 1.6665V4.1665C13.9584 4.50817 13.675 4.7915 13.3334 4.7915Z" fill="#667085"/>
<path id="Vector_3" d="M7.08333 12.0835C6.86667 12.0835 6.65 11.9918 6.49167 11.8418C6.34167 11.6835 6.25 11.4752 6.25 11.2502C6.25 11.1418 6.275 11.0335 6.31667 10.9335C6.35833 10.8335 6.41667 10.7418 6.49167 10.6585C6.8 10.3502 7.35833 10.3502 7.675 10.6585C7.825 10.8168 7.91667 11.0335 7.91667 11.2502C7.91667 11.3002 7.90834 11.3585 7.9 11.4168C7.89167 11.4668 7.875 11.5168 7.85 11.5668C7.83333 11.6168 7.80833 11.6668 7.775 11.7168C7.74167 11.7585 7.70833 11.8001 7.675 11.8418C7.51667 11.9918 7.3 12.0835 7.08333 12.0835Z" fill="#667085"/>
<path id="Vector_4" d="M9.99996 12.0834C9.89163 12.0834 9.78329 12.0584 9.68329 12.0168C9.57496 11.9751 9.49163 11.9168 9.40829 11.8418C9.25829 11.6834 9.16663 11.4751 9.16663 11.2501C9.16663 11.1418 9.19163 11.0334 9.23329 10.9334C9.27496 10.8334 9.33329 10.7418 9.40829 10.6584C9.49163 10.5834 9.57496 10.5251 9.68329 10.4834C9.99163 10.3584 10.3583 10.4251 10.5916 10.6584C10.7416 10.8168 10.8333 11.0334 10.8333 11.2501C10.8333 11.3001 10.825 11.3584 10.8166 11.4168C10.8083 11.4668 10.7916 11.5168 10.7666 11.5668C10.75 11.6168 10.725 11.6668 10.6916 11.7168C10.6666 11.7584 10.625 11.8001 10.5916 11.8418C10.4333 11.9918 10.2166 12.0834 9.99996 12.0834Z" fill="#667085"/>
<path id="Vector_5" d="M7.08333 15.0001C6.975 15.0001 6.86667 14.9752 6.76667 14.9335C6.65834 14.8918 6.56667 14.8335 6.49167 14.7585C6.41667 14.6835 6.35833 14.5918 6.31667 14.4835C6.275 14.3835 6.25 14.2751 6.25 14.1668C6.25 14.0585 6.275 13.9501 6.31667 13.8501C6.35833 13.7418 6.41667 13.6502 6.49167 13.5752C6.56667 13.5002 6.65834 13.4418 6.76667 13.4001C6.96667 13.3168 7.2 13.3085 7.4 13.4001C7.50833 13.4418 7.6 13.5002 7.675 13.5752C7.75 13.6502 7.80833 13.7418 7.85 13.8501C7.89166 13.9501 7.91667 14.0585 7.91667 14.1668C7.91667 14.2751 7.89166 14.3835 7.85 14.4835C7.80833 14.5918 7.75 14.6835 7.675 14.7585C7.6 14.8335 7.50833 14.8918 7.4 14.9335C7.3 14.9752 7.19167 15.0001 7.08333 15.0001Z" fill="#667085"/>
<path id="Vector_6" d="M17.0833 8.20019H2.91663C2.57496 8.20019 2.29163 7.91686 2.29163 7.5752C2.29163 7.23353 2.57496 6.9502 2.91663 6.9502H17.0833C17.425 6.9502 17.7083 7.23353 17.7083 7.5752C17.7083 7.91686 17.425 8.20019 17.0833 8.20019Z" fill="#667085"/>
<path id="Vector_7" d="M15 19.7917C14.025 19.7917 13.1 19.4417 12.3916 18.8C12.0916 18.55 11.825 18.2333 11.6083 17.8667C11.2416 17.2667 11.0416 16.5583 11.0416 15.8333C11.0416 13.65 12.8166 11.875 15 11.875C16.1333 11.875 17.2166 12.3667 17.9666 13.2167C18.6083 13.95 18.9583 14.875 18.9583 15.8333C18.9583 16.5583 18.7583 17.2667 18.3833 17.875C17.6833 19.0583 16.3833 19.7917 15 19.7917ZM15 13.125C13.5083 13.125 12.2916 14.3417 12.2916 15.8333C12.2916 16.325 12.425 16.8083 12.6833 17.225C12.825 17.475 13.0083 17.6833 13.2083 17.8583C13.7083 18.3083 14.3333 18.5417 15 18.5417C15.9583 18.5417 16.825 18.05 17.3166 17.2333C17.575 16.8083 17.7083 16.3333 17.7083 15.8333C17.7083 15.1833 17.4666 14.55 17.0333 14.0417C16.5166 13.4583 15.775 13.125 15 13.125Z" fill="#667085"/>
<path id="Vector_8" d="M14.5249 17.2831C14.3666 17.2831 14.2083 17.2248 14.0833 17.0998L13.2583 16.2748C13.0166 16.0331 13.0166 15.6331 13.2583 15.3915C13.4999 15.1498 13.8999 15.1498 14.1416 15.3915L14.5416 15.7915L15.8749 14.5581C16.1249 14.3248 16.5249 14.3415 16.7583 14.5915C16.9916 14.8415 16.9749 15.2415 16.7249 15.4748L14.9499 17.1165C14.8249 17.2248 14.6749 17.2831 14.5249 17.2831Z" fill="#667085"/>
<path id="Vector_9" d="M12.8083 18.9582H6.66667C3.625 18.9582 1.875 17.2082 1.875 14.1665V7.08317C1.875 4.0415 3.625 2.2915 6.66667 2.2915H13.3333C16.375 2.2915 18.125 4.0415 18.125 7.08317V13.6332C18.125 13.8915 17.9667 14.1248 17.7167 14.2165C17.475 14.3082 17.2 14.2415 17.025 14.0415C16.5083 13.4582 15.7667 13.1248 14.9917 13.1248C13.5 13.1248 12.2833 14.3415 12.2833 15.8332C12.2833 16.3248 12.4167 16.8082 12.675 17.2248C12.8167 17.4748 13 17.6832 13.2 17.8582C13.4 18.0248 13.475 18.2998 13.3833 18.5498C13.3083 18.7915 13.075 18.9582 12.8083 18.9582ZM6.66667 3.5415C4.28333 3.5415 3.125 4.69984 3.125 7.08317V14.1665C3.125 16.5498 4.28333 17.7082 6.66667 17.7082H11.5167C11.2083 17.1415 11.0417 16.4998 11.0417 15.8332C11.0417 13.6498 12.8167 11.8748 15 11.8748C15.6583 11.8748 16.3083 12.0415 16.875 12.3498V7.08317C16.875 4.69984 15.7167 3.5415 13.3333 3.5415H6.66667Z" fill="#667085"/>
</g>
</g>
</g>
</svg>
