<svg width="20" height="20" viewBox="0 0 20 20" fill="none" xmlns="http://www.w3.org/2000/svg">
<path d="M14.5417 18.9582C13.6001 18.9582 12.6084 18.7332 11.5834 18.2998C10.5834 17.8748 9.57508 17.2915 8.59175 16.5832C7.61675 15.8665 6.67508 15.0665 5.78341 14.1915C4.90008 13.2998 4.10008 12.3582 3.39175 11.3915C2.67508 10.3915 2.10008 9.3915 1.69175 8.42484C1.25841 7.3915 1.04175 6.3915 1.04175 5.44984C1.04175 4.79984 1.15841 4.18317 1.38341 3.60817C1.61675 3.0165 1.99175 2.4665 2.50008 1.9915C3.14175 1.35817 3.87508 1.0415 4.65842 1.0415C4.98342 1.0415 5.31675 1.1165 5.60008 1.24984C5.92508 1.39984 6.20008 1.62484 6.40008 1.92484L8.33342 4.64984C8.50842 4.8915 8.64175 5.12484 8.73341 5.35817C8.84175 5.60817 8.90008 5.85817 8.90008 6.09984C8.90008 6.4165 8.80841 6.72484 8.63341 7.0165C8.50841 7.2415 8.31675 7.48317 8.07508 7.72484L7.50842 8.3165C7.51675 8.3415 7.52508 8.35817 7.53341 8.37484C7.63342 8.54984 7.83341 8.84984 8.21675 9.29984C8.62508 9.7665 9.00842 10.1915 9.39175 10.5832C9.88342 11.0665 10.2917 11.4498 10.6751 11.7665C11.1501 12.1665 11.4584 12.3665 11.6417 12.4582L11.6251 12.4998L12.2334 11.8998C12.4917 11.6415 12.7417 11.4498 12.9834 11.3248C13.4417 11.0415 14.0251 10.9915 14.6084 11.2332C14.8251 11.3248 15.0584 11.4498 15.3084 11.6248L18.0751 13.5915C18.3834 13.7998 18.6084 14.0665 18.7417 14.3832C18.8667 14.6998 18.9251 14.9915 18.9251 15.2832C18.9251 15.6832 18.8334 16.0832 18.6584 16.4582C18.4834 16.8332 18.2667 17.1582 17.9917 17.4582C17.5167 17.9832 17.0001 18.3582 16.4001 18.5998C15.8251 18.8332 15.2001 18.9582 14.5417 18.9582ZM4.65842 2.2915C4.20008 2.2915 3.77508 2.4915 3.36675 2.8915C2.98341 3.24984 2.71675 3.6415 2.55008 4.0665C2.37508 4.49984 2.29175 4.95817 2.29175 5.44984C2.29175 6.22484 2.47508 7.0665 2.84175 7.93317C3.21675 8.8165 3.74175 9.73317 4.40841 10.6498C5.07508 11.5665 5.83342 12.4582 6.66675 13.2998C7.50008 14.1248 8.40008 14.8915 9.32508 15.5665C10.2251 16.2248 11.1501 16.7582 12.0667 17.1415C13.4917 17.7498 14.8251 17.8915 15.9251 17.4332C16.3501 17.2582 16.7251 16.9915 17.0667 16.6082C17.2584 16.3998 17.4084 16.1748 17.5334 15.9082C17.6334 15.6998 17.6834 15.4832 17.6834 15.2665C17.6834 15.1332 17.6584 14.9998 17.5917 14.8498C17.5667 14.7998 17.5167 14.7082 17.3584 14.5998L14.5917 12.6332C14.4251 12.5165 14.2751 12.4332 14.1334 12.3748C13.9501 12.2998 13.8751 12.2248 13.5917 12.3998C13.4251 12.4832 13.2751 12.6082 13.1084 12.7748L12.4751 13.3998C12.1501 13.7165 11.6501 13.7915 11.2667 13.6498L11.0417 13.5498C10.7001 13.3665 10.3001 13.0832 9.85841 12.7082C9.45842 12.3665 9.02508 11.9665 8.50008 11.4498C8.09175 11.0332 7.68341 10.5915 7.25842 10.0998C6.86675 9.6415 6.58342 9.24984 6.40841 8.92484L6.30841 8.67484C6.25842 8.48317 6.24175 8.37484 6.24175 8.25817C6.24175 7.95817 6.35008 7.6915 6.55841 7.48317L7.18341 6.83317C7.35008 6.6665 7.47508 6.50817 7.55841 6.3665C7.62508 6.25817 7.65008 6.1665 7.65008 6.08317C7.65008 6.0165 7.62508 5.9165 7.58342 5.8165C7.52508 5.68317 7.43341 5.53317 7.31675 5.37484L5.38341 2.6415C5.30008 2.52484 5.20008 2.4415 5.07508 2.38317C4.94175 2.32484 4.80008 2.2915 4.65842 2.2915ZM11.6251 12.5082L11.4917 13.0748L11.7167 12.4915C11.6751 12.4832 11.6417 12.4915 11.6251 12.5082Z" fill="#667085"/>
</svg>
