<svg width="20" height="20" viewBox="0 0 20 20" fill="none" xmlns="http://www.w3.org/2000/svg">
<path d="M18.3334 8.9585H1.66675C1.32508 8.9585 1.04175 8.67516 1.04175 8.3335C1.04175 7.99183 1.32508 7.7085 1.66675 7.7085H18.3334C18.6751 7.7085 18.9584 7.99183 18.9584 8.3335C18.9584 8.67516 18.6751 8.9585 18.3334 8.9585Z" fill="#667085"/>
<path d="M9.62511 17.7081H5.36679C2.05012 17.7081 1.03345 16.7081 1.03345 13.4248V6.57481C1.03345 3.94981 1.59177 2.49147 4.56677 2.31647C4.81677 2.30814 5.08346 2.2998 5.36679 2.2998H14.6251C17.9418 2.2998 18.9585 3.2998 18.9585 6.58314V10.2581C18.9585 10.5998 18.6751 10.8831 18.3335 10.8831C17.9918 10.8831 17.7085 10.5998 17.7085 10.2581V6.58314C17.7085 4.00814 17.2501 3.5498 14.6251 3.5498H5.36679C5.10012 3.5498 4.85844 3.55814 4.62511 3.56647C2.81678 3.67481 2.28345 4.08314 2.28345 6.58314V13.4331C2.28345 16.0081 2.74179 16.4665 5.36679 16.4665H9.62511C9.96678 16.4665 10.2501 16.7498 10.2501 17.0915C10.2501 17.4331 9.97511 17.7081 9.62511 17.7081Z" fill="#667085"/>
<path d="M8.33333 13.9585H5C4.65833 13.9585 4.375 13.6752 4.375 13.3335C4.375 12.9918 4.65833 12.7085 5 12.7085H8.33333C8.675 12.7085 8.95833 12.9918 8.95833 13.3335C8.95833 13.6752 8.675 13.9585 8.33333 13.9585Z" fill="#667085"/>
<path d="M15.0001 18.9582C13.6167 18.9582 12.3168 18.2248 11.6168 17.0332C11.2418 16.4332 11.0417 15.7248 11.0417 14.9998C11.0417 12.8165 12.8167 11.0415 15.0001 11.0415C17.1834 11.0415 18.9584 12.8165 18.9584 14.9998C18.9584 15.7248 18.7584 16.4332 18.3834 17.0415C17.6834 18.2248 16.3834 18.9582 15.0001 18.9582ZM15.0001 12.2915C13.5084 12.2915 12.2917 13.5082 12.2917 14.9998C12.2917 15.4915 12.4251 15.9748 12.6834 16.3915C13.1667 17.2082 14.0584 17.7082 15.0001 17.7082C15.9417 17.7082 16.8334 17.2082 17.3168 16.3998C17.5751 15.9748 17.7084 15.4998 17.7084 14.9998C17.7084 13.5082 16.4917 12.2915 15.0001 12.2915Z" fill="#667085"/>
<path d="M14.5248 16.4501C14.3665 16.4501 14.2082 16.3918 14.0832 16.2668L13.2582 15.4418C13.0165 15.2001 13.0165 14.8001 13.2582 14.5585C13.4998 14.3168 13.8998 14.3168 14.1415 14.5585L14.5415 14.9585L15.8748 13.7251C16.1248 13.4918 16.5248 13.5085 16.7582 13.7585C16.9915 14.0085 16.9749 14.4085 16.7249 14.6418L14.9498 16.2835C14.8248 16.3918 14.6748 16.4501 14.5248 16.4501Z" fill="#667085"/>
</svg>
