<svg width="103" height="16" viewBox="0 0 103 16" fill="none" xmlns="http://www.w3.org/2000/svg">
<g id="Group">
<g id="Group_2">
<path id="Vector" d="M0.3572 3.04424C0.3572 2.19711 1.02489 1.52942 1.87202 1.52942C2.71916 1.52942 3.38685 2.19711 3.38685 3.04424V7.09211H8.97041V3.04424C8.97041 2.19711 9.6381 1.52942 10.4852 1.52942C11.3324 1.52942 12.0001 2.19711 12.0001 3.04424V14.0111C12.0001 14.8582 11.3324 15.5259 10.4852 15.5259C9.6381 15.5259 8.97041 14.8582 8.97041 14.0111V9.8839H3.38267V14.0111C3.38267 14.8582 2.71498 15.5259 1.86785 15.5259C1.02072 15.5259 0.353027 14.8582 0.353027 14.0111V3.04424H0.3572Z" fill="white"/>
<path id="Vector_2" d="M19.5825 15.647C16.4193 15.647 14.0782 13.4269 14.0782 10.2011V10.1636C14.0782 7.1548 16.219 4.68018 19.2862 4.68018C22.8041 4.68018 24.3565 7.56794 24.3565 9.75045C24.3565 10.6143 23.7472 11.186 22.9627 11.186H17.0453C17.3416 12.5422 18.2847 13.2517 19.6201 13.2517C20.4463 13.2517 21.1349 12.9971 21.7442 12.5422C21.9612 12.3837 22.1573 12.3044 22.4703 12.3044C23.138 12.3044 23.6304 12.8135 23.6304 13.4853C23.6304 13.8776 23.4551 14.1739 23.2381 14.37C22.3159 15.1546 21.114 15.647 19.5825 15.647ZM21.5105 9.31645C21.3352 7.98107 20.5465 7.07552 19.2904 7.07552C18.0343 7.07552 17.2456 7.96021 17.0119 9.31645H21.5146H21.5105Z" fill="white"/>
<path id="Vector_3" d="M25.6209 12.3836V12.346C25.6209 10.0466 27.3694 8.98669 29.8649 8.98669C30.9249 8.98669 31.6927 9.16196 32.4397 9.42069V9.24542C32.4397 8.00602 31.6719 7.31747 30.1779 7.31747C29.3516 7.31747 28.6839 7.43431 28.1122 7.61375C27.937 7.67218 27.816 7.69304 27.6782 7.69304C26.9897 7.69304 26.4388 7.16306 26.4388 6.47451C26.4388 5.94453 26.7727 5.49384 27.2442 5.31439C28.1874 4.95968 29.2098 4.76355 30.6036 4.76355C32.2352 4.76355 33.4162 5.19755 34.1632 5.94453C34.9477 6.72906 35.3024 7.88917 35.3024 9.30384V14.0987C35.3024 14.9041 34.6556 15.5342 33.846 15.5342C32.9822 15.5342 32.4105 14.925 32.4105 14.2948V14.274C31.6844 15.0794 30.6828 15.6093 29.2264 15.6093C27.2401 15.6093 25.6084 14.4701 25.6084 12.3877L25.6209 12.3836ZM32.4814 11.695V11.165C31.9723 10.9313 31.3005 10.7728 30.5743 10.7728C29.2974 10.7728 28.5087 11.2819 28.5087 12.2292V12.2667C28.5087 13.0721 29.1764 13.5437 30.1403 13.5437C31.5342 13.5437 32.4814 12.7758 32.4814 11.695Z" fill="white"/>
<path id="Vector_4" d="M37.631 2.435C37.631 1.60873 38.2987 0.94104 39.1249 0.94104C39.9512 0.94104 40.6189 1.60873 40.6189 2.435V14.0319C40.6189 14.8582 39.9512 15.5259 39.1249 15.5259C38.2987 15.5259 37.631 14.8582 37.631 14.0319V2.435Z" fill="white"/>
<path id="Vector_5" d="M43.5275 12.4211V7.43016H43.4273C42.7179 7.43016 42.1504 6.85845 42.1504 6.1532C42.1504 5.44796 42.7221 4.87625 43.4273 4.87625H43.5275V3.55756C43.5275 2.73129 44.1952 2.0636 45.0215 2.0636C45.8477 2.0636 46.5154 2.73129 46.5154 3.55756V4.87625H47.8341C48.5435 4.87625 49.1111 5.44796 49.1111 6.1532C49.1111 6.85845 48.5394 7.43016 47.8341 7.43016H46.5154V11.9329C46.5154 12.6215 46.8117 12.9553 47.4794 12.9553C47.5795 12.9553 47.7757 12.9344 47.8341 12.9344C48.5018 12.9344 49.0735 13.4853 49.0735 14.1738C49.0735 14.7038 48.7188 15.1378 48.3057 15.2964C47.7548 15.5134 47.2457 15.5927 46.5947 15.5927C44.7669 15.5927 43.5275 14.8666 43.5275 12.4295V12.4211Z" fill="white"/>
<path id="Vector_6" d="M50.8011 2.435C50.8011 1.60873 51.4688 0.94104 52.295 0.94104C53.1213 0.94104 53.789 1.60873 53.789 2.435V6.36602C54.4776 5.48134 55.3622 4.67593 56.8771 4.67593C59.1389 4.67593 60.4534 6.16989 60.4534 8.5861V14.0319C60.4534 14.8582 59.7857 15.5259 58.9594 15.5259C58.1332 15.5259 57.4655 14.8582 57.4655 14.0319V9.52921C57.4655 8.11454 56.7978 7.38843 55.6585 7.38843C54.5193 7.38843 53.7932 8.11454 53.7932 9.52921V14.0319C53.7932 14.8582 53.1255 15.5259 52.2992 15.5259C51.473 15.5259 50.8053 14.8582 50.8053 14.0319V2.435H50.8011Z" fill="white"/>
<path id="Vector_7" d="M62.1478 10.2011V10.1636C62.1478 7.1548 64.4471 4.68018 67.6729 4.68018C69.267 4.68018 70.3854 5.11418 71.2701 5.86115C71.4662 6.01973 71.7416 6.37027 71.7416 6.88355C71.7416 7.63053 71.1324 8.21893 70.3854 8.21893C69.9931 8.21893 69.6968 8.06036 69.5216 7.92265C68.9916 7.50951 68.4407 7.25496 67.6562 7.25496C66.1623 7.25496 65.1023 8.57364 65.1023 10.126V10.1636C65.1023 11.7744 66.1456 13.0722 67.7772 13.0722C68.5618 13.0722 69.171 12.7968 69.7427 12.3461C69.9013 12.2292 70.1934 12.0707 70.5481 12.0707C71.2576 12.0707 71.8042 12.6424 71.8042 13.3476C71.8042 13.7399 71.629 14.0571 71.3702 14.2907C70.4855 15.0961 69.3672 15.647 67.6353 15.647C64.4722 15.647 62.1519 13.2099 62.1519 10.2011H62.1478Z" fill="white"/>
<path id="Vector_8" d="M72.86 12.3836V12.346C72.86 10.0466 74.6085 8.98669 77.104 8.98669C78.164 8.98669 78.9318 9.16196 79.6788 9.42069V9.24542C79.6788 8.00602 78.9109 7.31747 77.417 7.31747C76.5907 7.31747 75.923 7.43431 75.3513 7.61375C75.176 7.67218 75.055 7.69304 74.9173 7.69304C74.2288 7.69304 73.6779 7.16306 73.6779 6.47451C73.6779 5.94453 74.0118 5.49384 74.4833 5.31439C75.4264 4.95968 76.4488 4.76355 77.8426 4.76355C79.4743 4.76355 80.6553 5.19755 81.4023 5.94453C82.1868 6.72906 82.5415 7.88917 82.5415 9.30384V14.0987C82.5415 14.9041 81.8947 15.5342 81.0851 15.5342C80.2213 15.5342 79.6496 14.925 79.6496 14.2948V14.274C78.9235 15.0794 77.9177 15.6093 76.4655 15.6093C74.4791 15.6093 72.8475 14.4701 72.8475 12.3877L72.86 12.3836ZM79.7205 11.695V11.165C79.2114 10.9313 78.5395 10.7728 77.8134 10.7728C76.5365 10.7728 75.7478 11.2819 75.7478 12.2292V12.2667C75.7478 13.0721 76.4154 13.5437 77.3794 13.5437C78.7732 13.5437 79.7163 12.7758 79.7163 11.695H79.7205Z" fill="white"/>
</g>
<g id="Group_3">
<path id="Vector_9" d="M84.7282 6.24921C84.7282 5.42294 85.3959 4.75525 86.2222 4.75525C87.0484 4.75525 87.7161 5.42294 87.7161 6.24921V6.72076C88.1501 5.69836 88.8554 4.75525 89.7401 4.75525C90.6248 4.75525 91.1965 5.36452 91.1965 6.21165C91.1965 6.99619 90.6874 7.46774 90.0739 7.60545C88.5591 7.96016 87.7161 9.12028 87.7161 11.2402V14.032C87.7161 14.8582 87.0484 15.5259 86.2222 15.5259C85.3959 15.5259 84.7282 14.8582 84.7282 14.032V6.24921Z" fill="white"/>
</g>
<g id="Group_4">
<path id="Vector_10" d="M97.2474 15.647C94.0842 15.647 91.7432 13.4269 91.7432 10.2011V10.1636C91.7432 7.1548 93.8839 4.68018 96.9511 4.68018C100.469 4.68018 102.021 7.56794 102.021 9.75045C102.021 10.6143 101.412 11.186 100.628 11.186H94.7102C95.0065 12.5422 95.9496 13.2517 97.285 13.2517C98.1113 13.2517 98.7998 12.9971 99.4091 12.5422C99.6261 12.3837 99.8222 12.3044 100.135 12.3044C100.803 12.3044 101.295 12.8135 101.295 13.4853C101.295 13.8776 101.12 14.1739 100.903 14.37C99.9808 15.1546 98.7789 15.647 97.2474 15.647ZM99.1754 9.31645C99.0001 7.98107 98.2114 7.07552 96.9553 7.07552C95.6992 7.07552 94.9105 7.96021 94.6768 9.31645H99.1796H99.1754Z" fill="white"/>
</g>
</g>
</svg>
