<svg width="20" height="20" viewBox="0 0 20 20" fill="none" xmlns="http://www.w3.org/2000/svg">
<path d="M9.9999 18.9665C8.76657 18.9665 7.5249 18.4998 6.55824 17.5748C4.0999 15.2082 1.38324 11.4332 2.40824 6.9415C3.33324 2.8665 6.89157 1.0415 9.9999 1.0415C9.9999 1.0415 9.9999 1.0415 10.0082 1.0415C13.1166 1.0415 16.6749 2.8665 17.5999 6.94984C18.6166 11.4415 15.8999 15.2082 13.4416 17.5748C12.4749 18.4998 11.2332 18.9665 9.9999 18.9665ZM9.9999 2.2915C7.5749 2.2915 4.45824 3.58317 3.63324 7.2165C2.73324 11.1415 5.1999 14.5248 7.43324 16.6665C8.8749 18.0582 11.1332 18.0582 12.5749 16.6665C14.7999 14.5248 17.2666 11.1415 16.3832 7.2165C15.5499 3.58317 12.4249 2.2915 9.9999 2.2915Z" fill="#667085"/>
<path d="M11.6666 11.4249C11.5082 11.4249 11.3499 11.3665 11.2249 11.2415L7.9249 7.94154C7.68324 7.69987 7.68324 7.29987 7.9249 7.0582C8.16657 6.81654 8.56657 6.81654 8.80824 7.0582L12.1082 10.3582C12.3499 10.5999 12.3499 10.9999 12.1082 11.2415C11.9832 11.3582 11.8249 11.4249 11.6666 11.4249Z" fill="#667085"/>
<path d="M8.33337 11.4586C8.17503 11.4586 8.0167 11.4002 7.8917 11.2752C7.65003 11.0336 7.65003 10.6336 7.8917 10.3919L11.1917 7.09189C11.4334 6.85023 11.8334 6.85023 12.075 7.09189C12.3167 7.33356 12.3167 7.73356 12.075 7.97523L8.77503 11.2752C8.65003 11.4002 8.4917 11.4586 8.33337 11.4586Z" fill="#667085"/>
</svg>
