<svg width="50" height="50" viewBox="0 0 50 50" fill="none" xmlns="http://www.w3.org/2000/svg">
<g id="Logo/Icon" clip-path="url(#clip0_425_1010)">
<path id="Vector" d="M34.7384 10.132V17.3692C34.7384 18.9671 33.4415 20.264 31.8435 20.264C30.2456 20.264 28.9487 18.9671 28.9487 17.3692V10.132C28.9487 7.73651 27.0004 5.78972 24.6064 5.78972C22.2123 5.78972 20.2641 7.73651 20.2641 10.132V17.3692C20.2641 15.7698 18.9672 14.4743 17.3692 14.4743H14.4744V10.132C14.4744 4.54493 19.0193 0 24.6064 0C30.1935 0 34.7384 4.54493 34.7384 10.132Z" fill="#116682"/>
<path id="Vector_2" d="M49.2125 24.6064C49.2125 30.192 44.6676 34.7384 39.0805 34.7384H31.8433C30.2439 34.7384 28.9485 33.4415 28.9485 31.8435C28.9485 30.2456 30.2439 28.9487 31.8433 28.9487H39.0805C41.4745 28.9487 43.4228 27.0004 43.4228 24.6064C43.4228 22.2123 41.4745 20.2641 39.0805 20.2641H31.8433C33.4413 20.2641 34.7382 18.9672 34.7382 17.3692V14.4744H39.0805C44.6676 14.4744 49.2125 19.0193 49.2125 24.6064Z" fill="#7CAA83"/>
<path id="Vector_3" d="M34.7384 34.7382V39.0805C34.7384 44.6661 30.1935 49.2125 24.6064 49.2125C19.0193 49.2125 14.4744 44.6661 14.4744 39.0805V31.8433C14.4744 30.2439 15.7698 28.9485 17.3692 28.9485C18.9686 28.9485 20.2641 30.2439 20.2641 31.8433V39.0805C20.2641 41.4745 22.2123 43.4228 24.6064 43.4228C27.0004 43.4228 28.9487 41.4745 28.9487 39.0805V31.8433C28.9487 33.4413 30.2441 34.7382 31.8435 34.7382H34.7384Z" fill="#77CAF7"/>
<path id="Vector_4" d="M20.264 17.3692C20.264 18.9672 18.9671 20.2641 17.3692 20.2641H10.132C7.73796 20.2641 5.78972 22.2109 5.78972 24.6064C5.78972 27.0019 7.73796 28.9487 10.132 28.9487H17.3692C15.7698 28.9487 14.4743 30.2441 14.4743 31.8435V34.7384H10.132C4.54493 34.7384 0 30.192 0 24.6064C0 19.0207 4.54493 14.4744 10.132 14.4744H17.3692C18.9671 14.4744 20.264 15.7698 20.264 17.3692Z" fill="#7CAA83"/>
</g>
<defs>
<clipPath id="clip0_425_1010">
<rect width="49.2126" height="49.2126" fill="white"/>
</clipPath>
</defs>
</svg>
