<svg width="148" height="50" viewBox="0 0 148 50" fill="none" xmlns="http://www.w3.org/2000/svg">
<g clip-path="url(#clip0_425_1009)">
<path d="M34.7384 10.132V17.3692C34.7384 18.9671 33.4415 20.264 31.8435 20.264C30.2456 20.264 28.9487 18.9671 28.9487 17.3692V10.132C28.9487 7.73651 27.0004 5.78972 24.6064 5.78972C22.2123 5.78972 20.2641 7.73651 20.2641 10.132V17.3692C20.2641 15.7698 18.9672 14.4743 17.3692 14.4743H14.4744V10.132C14.4744 4.54493 19.0193 0 24.6064 0C30.1935 0 34.7384 4.54493 34.7384 10.132Z" fill="#116682"/>
<path d="M49.2125 24.6064C49.2125 30.192 44.6676 34.7384 39.0805 34.7384H31.8433C30.2439 34.7384 28.9485 33.4415 28.9485 31.8435C28.9485 30.2456 30.2439 28.9487 31.8433 28.9487H39.0805C41.4745 28.9487 43.4228 27.0004 43.4228 24.6064C43.4228 22.2123 41.4745 20.2641 39.0805 20.2641H31.8433C33.4413 20.2641 34.7382 18.9672 34.7382 17.3692V14.4744H39.0805C44.6676 14.4744 49.2125 19.0193 49.2125 24.6064Z" fill="#7CAA83"/>
<path d="M34.7384 34.7382V39.0805C34.7384 44.6661 30.1935 49.2125 24.6064 49.2125C19.0193 49.2125 14.4744 44.6661 14.4744 39.0805V31.8433C14.4744 30.2439 15.7698 28.9485 17.3692 28.9485C18.9686 28.9485 20.2641 30.2439 20.2641 31.8433V39.0805C20.2641 41.4745 22.2123 43.4228 24.6064 43.4228C27.0004 43.4228 28.9487 41.4745 28.9487 39.0805V31.8433C28.9487 33.4413 30.2441 34.7382 31.8435 34.7382H34.7384Z" fill="#77CAF7"/>
<path d="M20.264 17.3692C20.264 18.9672 18.9671 20.2641 17.3692 20.2641H10.132C7.73796 20.2641 5.78972 22.2109 5.78972 24.6064C5.78972 27.0019 7.73796 28.9487 10.132 28.9487H17.3692C15.7698 28.9487 14.4743 30.2441 14.4743 31.8435V34.7384H10.132C4.54493 34.7384 0 30.192 0 24.6064C0 19.0207 4.54493 14.4744 10.132 14.4744H17.3692C18.9671 14.4744 20.264 15.7698 20.264 17.3692Z" fill="#7CAA83"/>
</g>
<path d="M66.5817 14.9812V27.3292H64.6176V21.8854H58.3965V27.3292H56.4497V14.9812H58.3965V20.1456H64.6176V14.9812H66.5817Z" fill="white"/>
<path d="M73.1155 27.5031C72.4091 27.5031 71.765 27.3786 71.186 27.1296C70.6071 26.8807 70.1121 26.542 69.701 26.1121C69.2899 25.6836 68.9715 25.1843 68.7457 24.6169C68.5199 24.0495 68.407 23.4459 68.407 22.8076C68.407 22.1693 68.5199 21.5643 68.7457 20.9896C68.9715 20.415 69.2899 19.9113 69.701 19.4771C70.1121 19.0428 70.6071 18.6998 71.186 18.4508C71.765 18.2019 72.4135 18.0774 73.1328 18.0774C73.8522 18.0774 74.479 18.2048 75.0536 18.4595C75.6268 18.7143 76.116 19.0544 76.5213 19.4771C76.9266 19.9012 77.2363 20.3933 77.4505 20.9549C77.6647 21.5179 77.7719 22.1056 77.7719 22.7207C77.7719 22.8597 77.7661 22.99 77.7545 23.1116C77.7429 23.2331 77.7313 23.3345 77.7197 23.4155H70.4377C70.4725 23.8208 70.568 24.187 70.7243 24.5112C70.8806 24.8354 71.0833 25.1177 71.3322 25.3551C71.5812 25.5925 71.8649 25.7748 72.1833 25.9036C72.5018 26.031 72.8347 26.0947 73.1821 26.0947C73.4368 26.0947 73.6887 26.0629 73.9376 25.9992C74.1866 25.9355 74.4153 25.8429 74.6237 25.7213C74.8321 25.5997 75.0174 25.452 75.1795 25.2784C75.3416 25.1047 75.469 24.9136 75.5616 24.7037L77.1958 25.1727C76.8831 25.8573 76.365 26.416 75.6412 26.8517C74.9175 27.2859 74.0737 27.5045 73.1126 27.5045L73.1155 27.5031ZM75.8786 22.094C75.8439 21.7119 75.7483 21.3573 75.592 21.033C75.4357 20.7088 75.236 20.4324 74.9928 20.2066C74.7496 19.9808 74.4659 19.8042 74.1417 19.6768C73.8175 19.5494 73.4759 19.4857 73.1169 19.4857C72.758 19.4857 72.4193 19.5494 72.1008 19.6768C71.7824 19.8042 71.5016 19.9808 71.2584 20.2066C71.0153 20.4324 70.8184 20.7088 70.6679 21.033C70.5173 21.3573 70.4247 21.7119 70.39 22.094H75.8815H75.8786Z" fill="white"/>
<path d="M81.7523 27.503C81.3123 27.503 80.9041 27.4307 80.5278 27.2859C80.1515 27.1412 79.8272 26.9414 79.5551 26.6852C79.283 26.4305 79.0688 26.1294 78.9125 25.7806C78.7561 25.4332 78.678 25.0554 78.678 24.6501C78.678 24.2217 78.7706 23.8323 78.9559 23.485C79.1412 23.1376 79.4046 22.8351 79.7462 22.5803C80.0878 22.3256 80.4931 22.1287 80.962 21.9883C81.431 21.8494 81.9492 21.7799 82.518 21.7799C82.9464 21.7799 83.3691 21.8175 83.786 21.8928C84.2028 21.968 84.5792 22.0694 84.915 22.1967V21.57C84.915 20.8984 84.7239 20.373 84.3418 19.9966C83.9596 19.6203 83.4096 19.4307 82.6903 19.4307C82.2039 19.4307 81.7263 19.5204 81.2559 19.6999C80.7869 19.8794 80.3034 20.1371 79.8055 20.4743L79.215 19.257C80.3845 18.4682 81.6018 18.0745 82.8639 18.0745C84.1261 18.0745 85.0886 18.3929 85.7834 19.0312C86.4782 19.6695 86.8256 20.5858 86.8256 21.7799V25.067C86.8256 25.4723 86.9935 25.6822 87.3293 25.6937V27.3279C87.144 27.3626 86.9848 27.3858 86.8516 27.3974C86.7185 27.4089 86.5882 27.4147 86.4608 27.4147C86.0903 27.4147 85.8037 27.3221 85.601 27.1368C85.3984 26.9516 85.2739 26.7142 85.2276 26.4232L85.1755 25.8486C84.7702 26.3827 84.2694 26.7909 83.6716 27.0746C83.0753 27.3583 82.4341 27.5001 81.7509 27.5001L81.7523 27.503ZM82.2734 26.0947C82.7366 26.0947 83.1737 26.0107 83.5848 25.8428C83.9958 25.6749 84.3172 25.4404 84.5488 25.1379C84.7919 24.9295 84.9135 24.7095 84.9135 24.4764V23.2765C84.5893 23.1492 84.2448 23.0507 83.88 22.9813C83.5153 22.9118 83.1592 22.877 82.8118 22.877C82.1287 22.877 81.5699 23.0247 81.1343 23.3199C80.6986 23.6152 80.4829 24.0075 80.4829 24.4938C80.4829 24.9454 80.6508 25.3261 80.9866 25.6329C81.3224 25.9398 81.7509 26.0932 82.2719 26.0932L82.2734 26.0947Z" fill="white"/>
<path d="M89.1543 14.6323H91.0664V24.7021C91.0664 25.0379 91.1532 25.3028 91.3269 25.4938C91.5006 25.6849 91.7437 25.7804 92.0564 25.7804C92.1838 25.7804 92.3314 25.7573 92.4993 25.711C92.6672 25.6646 92.8264 25.6125 92.977 25.5546L93.2549 27.0498C92.977 27.1772 92.6469 27.2785 92.2648 27.3538C91.8827 27.4291 91.5411 27.4667 91.24 27.4667C90.58 27.4667 90.0676 27.2872 89.7014 26.9282C89.3367 26.5693 89.1543 26.0583 89.1543 25.3983V14.6323Z" fill="white"/>
<path d="M99.4253 26.8588C99.1821 26.9746 98.8463 27.1048 98.4179 27.2496C97.9894 27.3943 97.532 27.4667 97.0457 27.4667C96.7446 27.4667 96.4609 27.4262 96.1946 27.3451C95.9283 27.2641 95.6938 27.1425 95.4912 26.9804C95.2885 26.8182 95.1293 26.6069 95.0135 26.3449C94.8977 26.0844 94.8398 25.7689 94.8398 25.3969V19.7114H93.6414V18.2335H94.8398V15.2417H96.7519V18.2335H98.7334V19.7114H96.7519V24.7904C96.775 25.1146 96.8764 25.3506 97.0558 25.4953C97.2353 25.64 97.4582 25.7124 97.7246 25.7124C97.9909 25.7124 98.2456 25.6661 98.4888 25.5735C98.732 25.4808 98.9114 25.4056 99.0272 25.3477L99.4267 26.8602L99.4253 26.8588Z" fill="white"/>
<path d="M108.896 27.3292H106.984V22.2328C106.984 21.3976 106.836 20.781 106.541 20.3801C106.246 19.9806 105.82 19.7794 105.264 19.7794C104.998 19.7794 104.732 19.8315 104.465 19.9357C104.199 20.0399 103.947 20.1876 103.71 20.3786C103.472 20.5697 103.261 20.7955 103.076 21.0575C102.89 21.318 102.752 21.6046 102.659 21.9187V27.3277H100.747V14.6323H102.659V20.0587C103.006 19.432 103.478 18.9457 104.076 18.5983C104.672 18.2509 105.324 18.0772 106.031 18.0772C106.599 18.0772 107.065 18.1785 107.43 18.3812C107.794 18.5838 108.087 18.8545 108.307 19.1903C108.527 19.5261 108.68 19.9183 108.767 20.3641C108.854 20.81 108.897 21.2833 108.897 21.7812V27.3292H108.896Z" fill="white"/>
<path d="M110.529 22.7729C110.529 22.136 110.639 21.5324 110.859 20.9636C111.079 20.3962 111.394 19.8968 111.805 19.4684C112.216 19.0399 112.711 18.6998 113.29 18.4508C113.869 18.2019 114.518 18.0774 115.237 18.0774C116.175 18.0774 116.984 18.2829 117.661 18.6954C118.339 19.1065 118.845 19.6551 119.183 20.3383L117.323 20.9303C117.103 20.5482 116.808 20.25 116.437 20.0343C116.066 19.8201 115.655 19.713 115.204 19.713C114.822 19.713 114.466 19.7883 114.136 19.9388C113.806 20.0893 113.519 20.3006 113.276 20.5742C113.033 20.8463 112.842 21.1691 112.703 21.5396C112.564 21.9102 112.494 22.3227 112.494 22.7743C112.494 23.2259 112.567 23.6239 112.711 24.0003C112.856 24.3766 113.053 24.7052 113.302 24.9831C113.551 25.261 113.84 25.4781 114.17 25.6359C114.5 25.7922 114.851 25.8704 115.221 25.8704C115.453 25.8704 115.684 25.8385 115.916 25.7748C116.147 25.7111 116.359 25.6214 116.55 25.5056C116.741 25.3898 116.909 25.2566 117.054 25.1061C117.198 24.9556 117.305 24.7935 117.375 24.6198L119.252 25.177C118.951 25.8617 118.447 26.4204 117.74 26.8561C117.033 27.2903 116.198 27.5088 115.237 27.5088C114.531 27.5088 113.887 27.3815 113.308 27.1267C112.729 26.872 112.234 26.526 111.823 26.0918C111.411 25.6576 111.093 25.1553 110.867 24.5879C110.641 24.0205 110.529 23.417 110.529 22.7786V22.7729Z" fill="white"/>
<path d="M123.25 27.503C122.81 27.503 122.402 27.4307 122.026 27.2859C121.649 27.1412 121.325 26.9414 121.053 26.6852C120.781 26.4305 120.567 26.1294 120.41 25.7806C120.254 25.4332 120.176 25.0554 120.176 24.6501C120.176 24.2217 120.268 23.8323 120.454 23.485C120.639 23.1376 120.902 22.8351 121.244 22.5803C121.586 22.3256 121.991 22.1287 122.46 21.9883C122.929 21.8494 123.447 21.7799 124.016 21.7799C124.444 21.7799 124.867 21.8175 125.284 21.8928C125.701 21.968 126.077 22.0694 126.413 22.1967V21.57C126.413 20.8984 126.222 20.373 125.84 19.9966C125.457 19.6203 124.907 19.4307 124.188 19.4307C123.702 19.4307 123.224 19.5204 122.754 19.6999C122.285 19.8794 121.801 20.1371 121.303 20.4743L120.713 19.257C121.882 18.4682 123.1 18.0745 124.362 18.0745C125.624 18.0745 126.586 18.3929 127.281 19.0312C127.976 19.6695 128.323 20.5858 128.323 21.7799V25.067C128.323 25.4723 128.491 25.6822 128.827 25.6937V27.3279C128.642 27.3626 128.483 27.3858 128.349 27.3974C128.216 27.4089 128.086 27.4147 127.959 27.4147C127.588 27.4147 127.301 27.3221 127.099 27.1368C126.896 26.9516 126.772 26.7142 126.725 26.4232L126.673 25.8486C126.268 26.3827 125.767 26.7909 125.169 27.0746C124.573 27.3583 123.932 27.5001 123.249 27.5001L123.25 27.503ZM123.771 26.0947C124.234 26.0947 124.672 26.0107 125.083 25.8428C125.494 25.6749 125.815 25.4404 126.047 25.1379C126.29 24.9295 126.411 24.7095 126.411 24.4764V23.2765C126.087 23.1492 125.743 23.0507 125.378 22.9813C125.013 22.9118 124.657 22.877 124.31 22.877C123.626 22.877 123.068 23.0247 122.632 23.3199C122.196 23.6152 121.981 24.0075 121.981 24.4938C121.981 24.9454 122.149 25.3261 122.484 25.6329C122.82 25.9398 123.249 26.0932 123.77 26.0932L123.771 26.0947Z" fill="white"/>
<path d="M131.086 27.3293V19.9373H129.871V18.4595H131.086V18.0947C131.086 16.97 131.347 16.0828 131.868 15.4343C132.389 14.7844 133.095 14.4602 133.989 14.4602C134.359 14.4602 134.724 14.5094 135.083 14.6078C135.442 14.7063 135.783 14.8423 136.108 15.016L135.691 16.4417C135.517 16.3375 135.311 16.2507 135.074 16.1812C134.837 16.1117 134.608 16.077 134.388 16.077C133.936 16.077 133.592 16.2449 133.355 16.5807C133.117 16.9165 132.998 17.4043 132.998 18.0411V18.458H135.327V19.9358H132.998V27.3279H131.086V27.3293Z" fill="white"/>
<path d="M140.419 27.5031C139.713 27.5031 139.069 27.3786 138.49 27.1296C137.911 26.8807 137.416 26.542 137.005 26.1121C136.594 25.6836 136.275 25.1843 136.05 24.6169C135.824 24.0495 135.711 23.4459 135.711 22.8076C135.711 22.1693 135.824 21.5643 136.05 20.9896C136.275 20.415 136.594 19.9113 137.005 19.4771C137.416 19.0428 137.911 18.6998 138.49 18.4508C139.069 18.2019 139.717 18.0774 140.437 18.0774C141.156 18.0774 141.783 18.2048 142.358 18.4595C142.931 18.7143 143.42 19.0544 143.825 19.4771C144.231 19.9012 144.54 20.3933 144.754 20.9549C144.969 21.5179 145.076 22.1056 145.076 22.7207C145.076 22.8597 145.07 22.99 145.058 23.1116C145.047 23.2331 145.035 23.3345 145.024 23.4155H137.742C137.776 23.8208 137.872 24.187 138.028 24.5112C138.185 24.8354 138.387 25.1177 138.636 25.3551C138.885 25.5925 139.169 25.7748 139.487 25.9036C139.806 26.031 140.139 26.0947 140.486 26.0947C140.741 26.0947 140.993 26.0629 141.242 25.9992C141.491 25.9355 141.719 25.8429 141.928 25.7213C142.136 25.5997 142.321 25.452 142.483 25.2784C142.646 25.1047 142.773 24.9136 142.866 24.7037L144.5 25.1727C144.187 25.8573 143.669 26.416 142.945 26.8517C142.221 27.2859 141.378 27.5045 140.417 27.5045L140.419 27.5031ZM143.183 22.094C143.148 21.7119 143.052 21.3573 142.896 21.033C142.74 20.7088 142.54 20.4324 142.297 20.2066C142.054 19.9808 141.77 19.8042 141.446 19.6768C141.121 19.5494 140.78 19.4857 140.421 19.4857C140.062 19.4857 139.723 19.5494 139.405 19.6768C139.086 19.8042 138.806 19.9808 138.562 20.2066C138.319 20.4324 138.122 20.7088 137.972 21.033C137.821 21.3573 137.729 21.7119 137.694 22.094H143.185H143.183Z" fill="white"/>
<path d="M147.063 13.6776L145.834 12.448L142.35 15.9297L143.579 17.1593L147.063 13.6776Z" fill="white"/>
<path d="M60.1117 38.3732V38.8436H56.4497V33.4519H60.0422V33.9223H56.9867V35.8662H59.6514V36.3149H56.9867V38.3732H60.1117Z" fill="white"/>
<path d="M66.9218 38.8436H66.3993V36.6334C66.3993 36.1731 66.3255 35.833 66.1764 35.6159C66.0273 35.3988 65.8073 35.2888 65.5163 35.2888C65.3629 35.2888 65.2182 35.3163 65.0821 35.3727C64.9461 35.4292 64.8216 35.5073 64.7058 35.6086C64.59 35.71 64.4901 35.8301 64.4018 35.969C64.315 36.108 64.2484 36.2614 64.2021 36.4279V38.8422H63.6796V36.632C63.6796 36.1616 63.6072 35.82 63.4653 35.6072C63.322 35.3944 63.102 35.2888 62.8053 35.2888C62.5086 35.2888 62.235 35.393 61.9991 35.6C61.7632 35.8069 61.5953 36.0805 61.4925 36.4206V38.8436H60.97V34.8864H61.4462V35.7823C61.6097 35.4784 61.8254 35.2424 62.0917 35.0716C62.3581 34.9023 62.6519 34.8169 62.9747 34.8169C63.2974 34.8169 63.5826 34.911 63.7852 35.0977C63.9879 35.2844 64.1109 35.5305 64.1572 35.8344C64.5306 35.1556 65.0445 34.8169 65.7002 34.8169C65.926 34.8169 66.1156 34.8574 66.2719 34.9385C66.4282 35.0195 66.5527 35.1353 66.6482 35.2844C66.7423 35.4335 66.8118 35.613 66.8552 35.8243C66.8986 36.0342 66.9204 36.2687 66.9204 36.5263V38.8422L66.9218 38.8436Z" fill="white"/>
<path d="M69.9847 38.919C69.6678 38.919 69.3768 38.8408 69.1134 38.683C68.85 38.5267 68.6444 38.3241 68.4953 38.0751V38.8422H68.0264V33.2986H68.5489V35.7129C68.7284 35.4451 68.9426 35.228 69.1944 35.063C69.4448 34.898 69.7372 34.8169 70.0701 34.8169C70.3509 34.8169 70.6042 34.8748 70.8257 34.9921C71.0486 35.1093 71.2382 35.2642 71.3931 35.4596C71.5494 35.655 71.6695 35.875 71.7535 36.1196C71.8375 36.3657 71.8809 36.6175 71.8809 36.8752C71.8809 37.1531 71.8317 37.4165 71.7347 37.6655C71.6377 37.913 71.5045 38.1301 71.3352 38.3154C71.1658 38.5006 70.9646 38.6468 70.7331 38.7554C70.5 38.864 70.2511 38.919 69.9847 38.919ZM69.8617 38.463C70.0817 38.463 70.2829 38.4181 70.4638 38.3299C70.6448 38.2416 70.8011 38.1229 70.9314 37.9723C71.0616 37.8232 71.1644 37.6539 71.2382 37.4628C71.312 37.2732 71.3497 37.0764 71.3497 36.8737C71.3497 36.6711 71.3149 36.4656 71.2455 36.2745C71.176 36.082 71.079 35.9112 70.9531 35.7621C70.8271 35.613 70.6766 35.4943 70.5 35.4046C70.3234 35.3149 70.1309 35.2714 69.9211 35.2714C69.7618 35.2714 69.6142 35.2975 69.4752 35.351C69.3363 35.4046 69.2089 35.477 69.0917 35.5682C68.9744 35.6593 68.8688 35.765 68.7776 35.8837C68.6864 36.0024 68.6082 36.1283 68.5474 36.26V37.4903C68.5677 37.6264 68.6227 37.7552 68.7124 37.8739C68.8022 37.9926 68.9093 38.0954 69.0352 38.1808C69.1612 38.2676 69.2958 38.3356 69.442 38.3863C69.5881 38.437 69.7271 38.4616 69.8603 38.4616L69.8617 38.463Z" fill="white"/>
<path d="M74.7597 35.3424C74.4065 35.3525 74.0996 35.448 73.8376 35.6304C73.5771 35.8128 73.3918 36.0632 73.2847 36.3816V38.8423H72.7622V34.885H73.2543V35.8345C73.4034 35.5305 73.6017 35.2932 73.8536 35.1209C74.104 34.9487 74.3732 34.8633 74.6598 34.8633C74.7003 34.8633 74.7336 34.8662 74.7597 34.8705V35.3409V35.3424Z" fill="white"/>
<path d="M76.4098 38.9189C76.2202 38.9189 76.045 38.8871 75.8844 38.8234C75.7237 38.7597 75.5819 38.6728 75.4617 38.5614C75.3416 38.4499 75.2475 38.3197 75.1809 38.1706C75.1143 38.0215 75.0811 37.8608 75.0811 37.6886C75.0811 37.5164 75.1216 37.3571 75.2041 37.2095C75.2866 37.0633 75.4009 36.9359 75.55 36.8303C75.6991 36.7246 75.8742 36.6421 76.0798 36.5828C76.2853 36.5234 76.5097 36.4959 76.7557 36.4959C76.9598 36.4959 77.1682 36.5133 77.3781 36.5495C77.588 36.5842 77.7747 36.6349 77.9383 36.7014V36.3439C77.9383 35.9951 77.8384 35.7172 77.6387 35.5117C77.4389 35.3061 77.1625 35.2048 76.8093 35.2048C76.6052 35.2048 76.3953 35.2453 76.1797 35.3264C75.964 35.4074 75.7469 35.5232 75.5269 35.6752L75.343 35.3336C75.8598 34.9891 76.362 34.8169 76.8484 34.8169C77.3347 34.8169 77.7443 34.9558 78.0309 35.2352C78.3175 35.5146 78.4608 35.8981 78.4608 36.3888V38.1735C78.4608 38.3153 78.5245 38.3863 78.6533 38.3863V38.8422C78.5665 38.8567 78.4999 38.8654 78.4536 38.8654C78.3204 38.8654 78.2162 38.8321 78.1424 38.7669C78.0685 38.7018 78.028 38.6106 78.0237 38.4934L78.0078 38.1822C77.8239 38.4195 77.5923 38.6019 77.313 38.7293C77.0336 38.8567 76.734 38.9189 76.4112 38.9189H76.4098ZM76.5328 38.5238C76.8035 38.5238 77.0539 38.4731 77.2811 38.3718C77.5084 38.2705 77.6821 38.1359 77.7993 37.9694C77.8456 37.9245 77.8804 37.8739 77.9035 37.8218C77.9267 37.7697 77.9383 37.719 77.9383 37.6741V37.0286C77.7646 36.9634 77.5837 36.9128 77.3969 36.8766C77.2102 36.8419 77.0192 36.823 76.8252 36.823C76.4561 36.823 76.1579 36.8983 75.9264 37.0503C75.6962 37.2023 75.5804 37.402 75.5804 37.6495C75.5804 37.7711 75.605 37.8854 75.6528 37.9911C75.7006 38.0968 75.7686 38.1894 75.8525 38.269C75.9365 38.3472 76.0378 38.4094 76.1565 38.4557C76.2737 38.5021 76.3997 38.5238 76.5328 38.5238Z" fill="white"/>
<path d="M79.3118 36.8534C79.3118 36.5755 79.361 36.3121 79.458 36.0631C79.5549 35.8156 79.6924 35.5985 79.869 35.4132C80.0456 35.228 80.2569 35.0832 80.503 34.9761C80.7491 34.8705 81.0197 34.8169 81.3165 34.8169C81.6957 34.8169 82.0257 34.9023 82.3065 35.0716C82.5873 35.241 82.8001 35.4697 82.9434 35.7592L82.4368 35.9184C82.3239 35.7157 82.1661 35.558 81.9649 35.4436C81.7623 35.3293 81.5394 35.2728 81.2933 35.2728C81.0878 35.2728 80.8982 35.3134 80.7216 35.3944C80.545 35.4755 80.3916 35.5855 80.2613 35.7244C80.131 35.8634 80.0282 36.0298 79.9544 36.2224C79.8806 36.4149 79.843 36.6247 79.843 36.852C79.843 37.0792 79.8821 37.2848 79.9588 37.4831C80.0355 37.6799 80.1397 37.8507 80.2743 37.9955C80.4075 38.1402 80.5623 38.2531 80.7389 38.337C80.9155 38.421 81.1037 38.463 81.3034 38.463C81.4308 38.463 81.5582 38.4456 81.6841 38.4094C81.81 38.3747 81.9258 38.3255 82.0329 38.2618C82.14 38.1981 82.2327 38.1257 82.3094 38.0447C82.3861 37.9636 82.4397 37.8782 82.4701 37.787L82.9839 37.939C82.9274 38.0809 82.8464 38.2111 82.7378 38.3298C82.6307 38.4485 82.5034 38.5527 82.3572 38.641C82.211 38.7293 82.0503 38.7973 81.8737 38.8465C81.6971 38.8943 81.5148 38.9189 81.3251 38.9189C81.0328 38.9189 80.765 38.8639 80.5189 38.7554C80.2729 38.6468 80.0615 38.4977 79.8821 38.3066C79.7026 38.117 79.5636 37.8985 79.4637 37.6495C79.3639 37.402 79.3147 37.1357 79.3147 36.852L79.3118 36.8534Z" fill="white"/>
<path d="M85.4925 38.9189C85.2001 38.9189 84.9338 38.8639 84.6906 38.7554C84.4475 38.6468 84.2361 38.4977 84.0567 38.3066C83.8772 38.117 83.7382 37.8985 83.6383 37.6495C83.5385 37.402 83.4893 37.1357 83.4893 36.852C83.4893 36.5683 83.5385 36.3121 83.6383 36.066C83.7382 35.82 83.8757 35.6057 84.0523 35.4205C84.2289 35.2352 84.4402 35.089 84.6863 34.9805C84.9323 34.8719 85.1987 34.8169 85.4853 34.8169C85.7719 34.8169 86.044 34.8719 86.2871 34.9805C86.5303 35.089 86.7387 35.2381 86.9124 35.4248C87.0861 35.6115 87.2222 35.8272 87.3192 36.0704C87.4161 36.3135 87.4653 36.5712 87.4653 36.8447V36.9663C87.4653 37.0069 87.4625 37.0344 87.4581 37.0503H84.0335C84.0494 37.2631 84.0986 37.4585 84.1826 37.6394C84.2665 37.8203 84.3751 37.9752 84.5082 38.1069C84.6414 38.2386 84.7934 38.3414 84.9656 38.4138C85.1364 38.4876 85.3203 38.5238 85.5142 38.5238C85.6416 38.5238 85.7704 38.5064 85.8978 38.4702C86.0252 38.4355 86.1438 38.3863 86.251 38.3255C86.3581 38.2647 86.455 38.1909 86.5433 38.1011C86.6302 38.0128 86.6968 37.9158 86.7431 37.8087L87.1961 37.9303C87.1353 38.078 87.047 38.2097 86.9356 38.3284C86.8227 38.4471 86.6924 38.5513 86.5433 38.6396C86.3943 38.7279 86.2307 38.7959 86.0512 38.8451C85.8717 38.8929 85.685 38.9175 85.4911 38.9175L85.4925 38.9189ZM86.966 36.6566C86.9501 36.4438 86.9009 36.2498 86.8169 36.0762C86.7329 35.901 86.6244 35.7505 86.4941 35.6246C86.3639 35.4986 86.2133 35.3988 86.0411 35.3278C85.8688 35.2569 85.6865 35.2222 85.4925 35.2222C85.2985 35.2222 85.1133 35.2584 84.9396 35.3278C84.7659 35.3988 84.6139 35.4972 84.4822 35.6246C84.3519 35.7505 84.2463 35.9025 84.1681 36.0805C84.0885 36.2571 84.0407 36.4496 84.0263 36.658H86.966V36.6566Z" fill="white"/>
<path d="M90.2444 40.0579C90.2849 40.0623 90.3254 40.0666 90.3631 40.0695C90.4007 40.0724 90.4383 40.0738 90.4745 40.0738C90.5671 40.0738 90.6395 40.0608 90.6931 40.0362C90.7466 40.0116 90.7987 39.9551 90.8508 39.8697C90.9015 39.7844 90.9594 39.6599 91.0231 39.4978C91.0868 39.3356 91.178 39.1185 91.2952 38.845L89.5525 34.8877H90.0895L91.5717 38.3659L92.9453 34.8877H93.4446L91.3719 39.9913C91.3155 40.1375 91.2228 40.2663 91.0911 40.3749C90.9608 40.4835 90.7828 40.5385 90.557 40.5385C90.5063 40.5385 90.4571 40.5385 90.4108 40.5341C90.3645 40.5312 90.3081 40.5254 90.2415 40.5153V40.0594L90.2444 40.0579Z" fill="white"/>
<path d="M95.7415 38.9189C95.4492 38.9189 95.1843 38.8639 94.9426 38.7554C94.7023 38.6468 94.4939 38.4992 94.3173 38.311C94.1407 38.1243 94.0032 37.9057 93.9062 37.6582C93.8092 37.4107 93.76 37.1487 93.76 36.8766C93.76 36.6045 93.8092 36.3353 93.9091 36.0863C94.009 35.8388 94.1465 35.6202 94.3231 35.4335C94.4996 35.2468 94.7081 35.0963 94.9484 34.9848C95.1886 34.8734 95.4521 34.8184 95.7386 34.8184C96.0252 34.8184 96.2901 34.8734 96.5333 34.9848C96.7765 35.0963 96.9863 35.2454 97.1629 35.4335C97.3395 35.6217 97.477 35.8388 97.5769 36.0863C97.6768 36.3338 97.726 36.5973 97.726 36.8766C97.726 37.156 97.6768 37.4107 97.5798 37.6582C97.4828 37.9057 97.3453 38.1243 97.1687 38.311C96.9921 38.4977 96.7822 38.6468 96.5391 38.7554C96.2959 38.8639 96.0281 38.9189 95.7372 38.9189H95.7415ZM94.2898 36.8838C94.2898 37.1067 94.3289 37.3123 94.4056 37.5033C94.4823 37.693 94.5865 37.8609 94.7168 38.0042C94.847 38.1489 95.0005 38.2603 95.177 38.3414C95.3536 38.4225 95.5418 38.463 95.7415 38.463C95.9413 38.463 96.1295 38.421 96.306 38.3371C96.4826 38.2531 96.6375 38.1402 96.7707 37.9955C96.9038 37.8507 97.008 37.6828 97.0848 37.4903C97.1615 37.2978 97.2006 37.0908 97.2006 36.8679C97.2006 36.645 97.1629 36.4438 97.0848 36.2484C97.008 36.053 96.9038 35.8837 96.7707 35.7389C96.6375 35.5942 96.4826 35.4813 96.306 35.3973C96.1295 35.3134 95.9413 35.2714 95.7415 35.2714C95.5418 35.2714 95.3551 35.3134 95.1814 35.3973C95.0077 35.4813 94.8543 35.5956 94.7211 35.7433C94.5879 35.8909 94.4837 36.0617 94.4056 36.2557C94.3289 36.4511 94.2898 36.6595 94.2898 36.8824V36.8838Z" fill="white"/>
<path d="M99.8553 38.9188C99.4197 38.9188 99.0969 38.7755 98.8841 38.4903C98.6713 38.2038 98.5657 37.7782 98.5657 37.2108V34.8877H99.0882V37.1211C99.0882 38.017 99.3979 38.4657 100.017 38.4657C100.171 38.4657 100.321 38.4411 100.47 38.3905C100.62 38.3398 100.756 38.266 100.882 38.1705C101.007 38.0749 101.119 37.9606 101.219 37.8289C101.319 37.6972 101.4 37.5481 101.461 37.3802V34.8891H101.983V38.1777C101.983 38.3196 102.044 38.3905 102.167 38.3905V38.8464C102.105 38.8565 102.055 38.8609 102.018 38.8609H101.937C101.814 38.8565 101.714 38.8131 101.637 38.7321C101.56 38.651 101.521 38.5425 101.521 38.405V37.949C101.348 38.2573 101.11 38.4976 100.811 38.6669C100.511 38.8363 100.193 38.9217 99.8553 38.9217V38.9188Z" fill="white"/>
<path d="M105.16 35.3424C104.807 35.3525 104.5 35.448 104.238 35.6304C103.977 35.8128 103.792 36.0632 103.685 36.3816V38.8423H103.163V34.885H103.655V35.8345C103.804 35.5305 104.002 35.2932 104.254 35.1209C104.504 34.9487 104.774 34.8633 105.06 34.8633C105.101 34.8633 105.134 34.8662 105.16 34.8705V35.3409V35.3424Z" fill="white"/>
<path d="M110.995 38.8437H110.472V36.6335C110.472 36.1833 110.394 35.8461 110.238 35.6232C110.081 35.4003 109.853 35.2888 109.55 35.2888C109.401 35.2888 109.255 35.3178 109.109 35.3757C108.962 35.4336 108.826 35.5132 108.698 35.6145C108.57 35.7158 108.459 35.8345 108.363 35.972C108.269 36.1081 108.198 36.2586 108.152 36.4207V38.8437H107.629V33.3H108.152V35.7838C108.311 35.4857 108.531 35.2497 108.812 35.0775C109.093 34.9052 109.398 34.8199 109.725 34.8199C109.955 34.8199 110.149 34.8618 110.309 34.9458C110.468 35.0297 110.598 35.1455 110.701 35.2946C110.804 35.4437 110.877 35.6232 110.924 35.8331C110.97 36.0429 110.993 36.2745 110.993 36.5278V38.8437H110.995Z" fill="white"/>
<path d="M113.836 38.9189C113.544 38.9189 113.277 38.8639 113.034 38.7554C112.791 38.6468 112.58 38.4977 112.4 38.3066C112.221 38.117 112.082 37.8985 111.982 37.6495C111.882 37.402 111.833 37.1357 111.833 36.852C111.833 36.5683 111.882 36.3121 111.982 36.066C112.082 35.82 112.219 35.6057 112.396 35.4205C112.572 35.2352 112.784 35.089 113.03 34.9805C113.276 34.8719 113.542 34.8169 113.829 34.8169C114.115 34.8169 114.387 34.8719 114.631 34.9805C114.874 35.089 115.082 35.2381 115.256 35.4248C115.43 35.6115 115.566 35.8272 115.663 36.0704C115.76 36.3135 115.809 36.5712 115.809 36.8447V36.9663C115.809 37.0069 115.806 37.0344 115.802 37.0503H112.377C112.393 37.2631 112.442 37.4585 112.526 37.6394C112.61 37.8203 112.719 37.9752 112.852 38.1069C112.985 38.2386 113.137 38.3414 113.309 38.4138C113.48 38.4876 113.664 38.5238 113.858 38.5238C113.985 38.5238 114.114 38.5064 114.241 38.4702C114.369 38.4355 114.487 38.3863 114.594 38.3255C114.702 38.2647 114.799 38.1909 114.887 38.1011C114.974 38.0128 115.04 37.9158 115.087 37.8087L115.54 37.9303C115.479 38.078 115.391 38.2097 115.279 38.3284C115.166 38.4471 115.036 38.5513 114.887 38.6396C114.738 38.7279 114.574 38.7959 114.395 38.8451C114.215 38.8929 114.029 38.9175 113.835 38.9175L113.836 38.9189ZM115.309 36.6566C115.294 36.4438 115.244 36.2498 115.16 36.0762C115.076 35.901 114.968 35.7505 114.838 35.6246C114.707 35.4986 114.557 35.3988 114.385 35.3278C114.212 35.2569 114.03 35.2222 113.836 35.2222C113.642 35.2222 113.457 35.2584 113.283 35.3278C113.109 35.3988 112.957 35.4972 112.826 35.6246C112.695 35.7505 112.59 35.9025 112.512 36.0805C112.432 36.2571 112.384 36.4496 112.37 36.658H115.309V36.6566Z" fill="white"/>
<path d="M117.621 38.9189C117.431 38.9189 117.256 38.8871 117.096 38.8234C116.935 38.7597 116.793 38.6728 116.673 38.5614C116.553 38.4499 116.459 38.3197 116.392 38.1706C116.326 38.0215 116.292 37.8608 116.292 37.6886C116.292 37.5164 116.333 37.3571 116.415 37.2095C116.498 37.0633 116.612 36.9359 116.761 36.8303C116.91 36.7246 117.085 36.6421 117.291 36.5828C117.496 36.5234 117.721 36.4959 117.967 36.4959C118.171 36.4959 118.379 36.5133 118.589 36.5495C118.799 36.5842 118.986 36.6349 119.149 36.7014V36.3439C119.149 35.9951 119.05 35.7172 118.85 35.5117C118.65 35.3061 118.374 35.2048 118.02 35.2048C117.816 35.2048 117.607 35.2453 117.391 35.3264C117.175 35.4074 116.958 35.5232 116.738 35.6752L116.554 35.3336C117.071 34.9891 117.573 34.8169 118.06 34.8169C118.546 34.8169 118.956 34.9558 119.242 35.2352C119.529 35.5146 119.672 35.8981 119.672 36.3888V38.1735C119.672 38.3153 119.736 38.3863 119.864 38.3863V38.8422C119.778 38.8567 119.711 38.8654 119.665 38.8654C119.532 38.8654 119.427 38.8321 119.354 38.7669C119.28 38.7018 119.239 38.6106 119.235 38.4934L119.219 38.1822C119.035 38.4195 118.804 38.6019 118.524 38.7293C118.245 38.8567 117.945 38.9189 117.622 38.9189H117.621ZM117.744 38.5238C118.015 38.5238 118.265 38.4731 118.492 38.3718C118.72 38.2705 118.893 38.1359 119.011 37.9694C119.057 37.9245 119.092 37.8739 119.115 37.8218C119.138 37.7697 119.149 37.719 119.149 37.6741V37.0286C118.976 36.9634 118.795 36.9128 118.608 36.8766C118.421 36.8419 118.23 36.823 118.036 36.823C117.667 36.823 117.369 36.8983 117.138 37.0503C116.907 37.2023 116.792 37.402 116.792 37.6495C116.792 37.7711 116.816 37.8854 116.864 37.9911C116.912 38.0968 116.98 38.1894 117.064 38.269C117.148 38.3472 117.249 38.4094 117.368 38.4557C117.485 38.5021 117.611 38.5238 117.744 38.5238Z" fill="white"/>
<path d="M120.821 33.3H121.344V37.9477C121.344 38.0939 121.384 38.2097 121.467 38.2937C121.548 38.3776 121.664 38.4196 121.813 38.4196C121.869 38.4196 121.936 38.4124 122.013 38.3964C122.089 38.3805 122.162 38.3617 122.228 38.3356L122.321 38.7525C122.224 38.793 122.105 38.8263 121.963 38.8509C121.823 38.8755 121.701 38.8886 121.599 38.8886C121.358 38.8886 121.169 38.822 121.031 38.6874C120.894 38.5528 120.824 38.3646 120.824 38.1214V33.2986L120.821 33.3Z" fill="white"/>
<path d="M124.806 38.6539C124.776 38.6684 124.731 38.6901 124.671 38.7147C124.612 38.7408 124.544 38.7654 124.467 38.79C124.391 38.8146 124.304 38.8378 124.207 38.858C124.11 38.8783 124.007 38.8884 123.9 38.8884C123.793 38.8884 123.68 38.874 123.577 38.8436C123.474 38.8132 123.385 38.7668 123.308 38.7032C123.231 38.6395 123.17 38.5599 123.124 38.4643C123.078 38.3688 123.055 38.2574 123.055 38.13V35.2974H122.502V34.8877H123.055V33.5518H123.577V34.8877H124.499V35.2974H123.577V37.9852C123.587 38.1329 123.639 38.24 123.735 38.308C123.829 38.376 123.939 38.4108 124.061 38.4108C124.21 38.4108 124.34 38.3862 124.453 38.3384C124.566 38.2906 124.637 38.2559 124.669 38.2356L124.806 38.6539Z" fill="white"/>
<path d="M128.821 38.8437H128.299V36.6335C128.299 36.1833 128.221 35.8461 128.064 35.6232C127.908 35.4003 127.679 35.2888 127.377 35.2888C127.228 35.2888 127.082 35.3178 126.935 35.3757C126.789 35.4336 126.653 35.5132 126.524 35.6145C126.397 35.7158 126.285 35.8345 126.19 35.972C126.096 36.1081 126.025 36.2586 125.979 36.4207V38.8437H125.456V33.3H125.979V35.7838C126.138 35.4857 126.358 35.2497 126.639 35.0775C126.919 34.9052 127.225 34.8199 127.552 34.8199C127.782 34.8199 127.976 34.8618 128.135 34.9458C128.294 35.0297 128.425 35.1455 128.528 35.2946C128.63 35.4437 128.704 35.6232 128.75 35.8331C128.797 36.0429 128.82 36.2745 128.82 36.5278V38.8437H128.821Z" fill="white"/>
<defs>
<clipPath id="clip0_425_1009">
<rect width="49.2126" height="49.2126" fill="white"/>
</clipPath>
</defs>
</svg>
