<svg width="21" height="20" viewBox="0 0 21 20" fill="none" xmlns="http://www.w3.org/2000/svg">
<g id="Icon / Outlined / More">
<path id="Vector" d="M9.40625 4.51172C9.40625 4.8018 9.52148 5.08 9.7266 5.28512C9.93172 5.49023 10.2099 5.60547 10.5 5.60547C10.7901 5.60547 11.0683 5.49023 11.2734 5.28512C11.4785 5.08 11.5938 4.8018 11.5938 4.51172C11.5938 4.22164 11.4785 3.94344 11.2734 3.73832C11.0683 3.5332 10.7901 3.41797 10.5 3.41797C10.2099 3.41797 9.93172 3.5332 9.7266 3.73832C9.52148 3.94344 9.40625 4.22164 9.40625 4.51172ZM9.40625 9.98047C9.40625 10.2705 9.52148 10.5487 9.7266 10.7539C9.93172 10.959 10.2099 11.0742 10.5 11.0742C10.7901 11.0742 11.0683 10.959 11.2734 10.7539C11.4785 10.5487 11.5938 10.2705 11.5938 9.98047C11.5938 9.69039 11.4785 9.41219 11.2734 9.20707C11.0683 9.00195 10.7901 8.88672 10.5 8.88672C10.2099 8.88672 9.93172 9.00195 9.7266 9.20707C9.52148 9.41219 9.40625 9.69039 9.40625 9.98047ZM9.40625 15.4492C9.40625 15.7393 9.52148 16.0175 9.7266 16.2226C9.93172 16.4277 10.2099 16.543 10.5 16.543C10.7901 16.543 11.0683 16.4277 11.2734 16.2226C11.4785 16.0175 11.5938 15.7393 11.5938 15.4492C11.5938 15.1591 11.4785 14.8809 11.2734 14.6758C11.0683 14.4707 10.7901 14.3555 10.5 14.3555C10.2099 14.3555 9.93172 14.4707 9.7266 14.6758C9.52148 14.8809 9.40625 15.1591 9.40625 15.4492Z" fill="#667085"/>
</g>
</svg>
