<svg width="16" height="16" viewBox="0 0 16 16" fill="none" xmlns="http://www.w3.org/2000/svg">
<g id="note-favorite">
<g id="vuesax/outline/note-favorite">
<g id="note-favorite_2">
<path id="Vector" d="M5.33337 3.83325C5.06004 3.83325 4.83337 3.60659 4.83337 3.33325V1.33325C4.83337 1.05992 5.06004 0.833252 5.33337 0.833252C5.60671 0.833252 5.83337 1.05992 5.83337 1.33325V3.33325C5.83337 3.60659 5.60671 3.83325 5.33337 3.83325Z" fill="#E6EFF3"/>
<path id="Vector_2" d="M10.6666 3.83325C10.3933 3.83325 10.1666 3.60659 10.1666 3.33325V1.33325C10.1666 1.05992 10.3933 0.833252 10.6666 0.833252C10.94 0.833252 11.1666 1.05992 11.1666 1.33325V3.33325C11.1666 3.60659 10.94 3.83325 10.6666 3.83325Z" fill="#E6EFF3"/>
<path id="Vector_3" d="M9.78666 15.1666H5.33333C2.9 15.1666 1.5 13.7666 1.5 11.3333V5.66659C1.5 3.23325 2.9 1.83325 5.33333 1.83325H10.6667C13.1 1.83325 14.5 3.23325 14.5 5.66659V9.08659C14.5 9.27992 14.3867 9.45325 14.22 9.53992C14.0467 9.61992 13.84 9.5999 13.6933 9.4799C12.64 8.6399 11.02 8.63992 9.96667 9.49992C9.24668 10.0666 8.84001 10.9133 8.84001 11.8399C8.84001 12.3866 8.98667 12.9199 9.27334 13.3799C9.49334 13.7399 9.76667 14.0399 10.0867 14.2666C10.26 14.3933 10.34 14.6199 10.2733 14.8266C10.1933 15.0266 10.0067 15.1666 9.78666 15.1666ZM5.33333 2.83325C3.42667 2.83325 2.5 3.75992 2.5 5.66659V11.3333C2.5 13.2399 3.42667 14.1666 5.33333 14.1666H8.59334C8.52668 14.0799 8.46666 13.9866 8.41333 13.8933C8.03333 13.2799 7.83333 12.5666 7.83333 11.8333C7.83333 10.5999 8.38001 9.46659 9.34001 8.71326C10.48 7.78659 12.1667 7.58658 13.5 8.19991V5.66659C13.5 3.75992 12.5733 2.83325 10.6667 2.83325H5.33333Z" fill="#E6EFF3"/>
<path id="Vector_4" d="M8.66663 7.83325H4.66663C4.39329 7.83325 4.16663 7.60659 4.16663 7.33325C4.16663 7.05992 4.39329 6.83325 4.66663 6.83325H8.66663C8.93996 6.83325 9.16663 7.05992 9.16663 7.33325C9.16663 7.60659 8.93996 7.83325 8.66663 7.83325Z" fill="#E6EFF3"/>
<path id="Vector_5" d="M6.41329 11.1667H4.66663C4.39329 11.1667 4.16663 10.9401 4.16663 10.6667C4.16663 10.3934 4.39329 10.1667 4.66663 10.1667H6.41329C6.68662 10.1667 6.91329 10.3934 6.91329 10.6667C6.91329 10.9401 6.69329 11.1667 6.41329 11.1667Z" fill="#E6EFF3"/>
<path id="Vector_6" d="M11.8334 15.8333C10.98 15.8333 10.1734 15.5666 9.49337 15.0733C9.0667 14.7666 8.70004 14.3667 8.41337 13.8933C8.03337 13.28 7.83337 12.5666 7.83337 11.8333C7.83337 10.6 8.38005 9.46665 9.34005 8.71332C10.7267 7.58665 12.9134 7.57997 14.3134 8.6933C15.28 9.4533 15.8334 10.6 15.8334 11.8333C15.8334 12.5666 15.6334 13.28 15.2534 13.8933C15.04 14.26 14.7667 14.58 14.4534 14.84C13.74 15.48 12.8067 15.8333 11.8334 15.8333ZM11.8334 8.83332C11.1534 8.83332 10.4867 9.06664 9.96004 9.49331C9.24004 10.06 8.83337 10.9066 8.83337 11.8333C8.83337 12.38 8.98004 12.9133 9.2667 13.3733C9.4867 13.7333 9.76004 14.0333 10.08 14.26C10.5934 14.6333 11.2 14.8333 11.8334 14.8333C12.5734 14.8333 13.2534 14.5733 13.8 14.0867C14.04 13.8867 14.2334 13.6533 14.3934 13.38C14.68 12.9133 14.8334 12.38 14.8334 11.8333C14.8334 10.9066 14.42 10.0533 13.6934 9.47996C13.16 9.0533 12.52 8.83332 11.8334 8.83332Z" fill="#E6EFF3"/>
<path id="Vector_7" d="M11.8333 14.0001C11.56 14.0001 11.3333 13.7734 11.3333 13.5001C11.3333 12.8601 10.8066 12.3334 10.1666 12.3334C9.89329 12.3334 9.66663 12.1067 9.66663 11.8334C9.66663 11.5601 9.89329 11.3334 10.1666 11.3334C10.8066 11.3334 11.3333 10.8067 11.3333 10.1667C11.3333 9.89341 11.56 9.66675 11.8333 9.66675C12.1066 9.66675 12.3333 9.89341 12.3333 10.1667C12.3333 10.8067 12.86 11.3334 13.5 11.3334C13.7733 11.3334 14 11.5601 14 11.8334C14 12.1067 13.7733 12.3334 13.5 12.3334C12.86 12.3334 12.3333 12.8601 12.3333 13.5001C12.3333 13.7734 12.1066 14.0001 11.8333 14.0001ZM11.5466 11.8334C11.6466 11.9201 11.7466 12.0134 11.8333 12.1201C11.92 12.0201 12.0133 11.9201 12.12 11.8334C12.02 11.7467 11.92 11.6534 11.8333 11.5468C11.7466 11.6534 11.6533 11.7467 11.5466 11.8334Z" fill="#E6EFF3"/>
</g>
</g>
</g>
</svg>
