<svg width="96" height="16" viewBox="0 0 96 16" fill="none" xmlns="http://www.w3.org/2000/svg">
<g id="Group">
<g id="Group_2">
<path id="Vector" d="M0.730591 2.55921C0.730591 1.71088 1.39923 1.04224 2.24757 1.04224H6.36388C9.65274 1.04224 11.6378 2.98965 11.6378 5.80629V5.8439C11.6378 9.03247 9.15962 10.6874 6.06717 10.6874H3.76454V13.4246C3.76454 14.2729 3.0959 14.9416 2.24757 14.9416C1.39923 14.9416 0.730591 14.2729 0.730591 13.4246V2.55921ZM6.16328 7.9919C7.68026 7.9919 8.56621 7.08506 8.56621 5.90659V5.86898C8.56621 4.5108 7.62175 3.78366 6.10478 3.78366H3.76454V7.99608H6.16746L6.16328 7.9919Z" fill="white"/>
<path id="Vector_2" d="M13.1757 5.64745C13.1757 4.82001 13.8443 4.15137 14.6717 4.15137C15.4992 4.15137 16.1678 4.82001 16.1678 5.64745V6.11967C16.6024 5.09582 17.3087 4.15137 18.1946 4.15137C19.0806 4.15137 19.6531 4.7615 19.6531 5.60984C19.6531 6.39549 19.1433 6.86771 18.529 7.00562C17.012 7.36083 16.1678 8.52259 16.1678 10.6455V13.4413C16.1678 14.2687 15.4992 14.9374 14.6717 14.9374C13.8443 14.9374 13.1757 14.2687 13.1757 13.4413V5.64745Z" fill="white"/>
<path id="Vector_3" d="M20.9694 1.74845C20.9694 0.883393 21.6966 0.352661 22.641 0.352661C23.5855 0.352661 24.3126 0.883393 24.3126 1.74845V1.78606C24.3126 2.65111 23.5855 3.20274 22.641 3.20274C21.6966 3.20274 20.9694 2.65111 20.9694 1.78606V1.74845ZM21.1449 5.64745C21.1449 4.82001 21.8136 4.15137 22.641 4.15137C23.4685 4.15137 24.1371 4.82001 24.1371 5.64745V13.4413C24.1371 14.2687 23.4685 14.9374 22.641 14.9374C21.8136 14.9374 21.1449 14.2687 21.1449 13.4413V5.64745Z" fill="white"/>
<path id="Vector_4" d="M26.5609 5.6475C26.5609 4.82006 27.2295 4.15142 28.057 4.15142C28.8844 4.15142 29.5531 4.82006 29.5531 5.6475V5.76451C30.2426 4.87857 31.1453 4.07202 32.6622 4.07202C34.0413 4.07202 35.0819 4.68215 35.6335 5.74362C36.5571 4.66126 37.6603 4.07202 39.0979 4.07202C41.3211 4.07202 42.6626 5.4093 42.6626 7.95013V13.4413C42.6626 14.2688 41.9939 14.9374 41.1665 14.9374C40.3391 14.9374 39.6704 14.2688 39.6704 13.4413V8.93219C39.6704 7.51551 39.0394 6.78837 37.9194 6.78837C36.7994 6.78837 36.1099 7.51551 36.1099 8.93219V13.4413C36.1099 14.2688 35.4413 14.9374 34.6138 14.9374C33.7864 14.9374 33.1178 14.2688 33.1178 13.4413V8.93219C33.1178 7.51551 32.4867 6.78837 31.3668 6.78837C30.2468 6.78837 29.5573 7.51551 29.5573 8.93219V13.4413C29.5573 14.2688 28.8886 14.9374 28.0612 14.9374C27.2337 14.9374 26.5651 14.2688 26.5651 13.4413V5.6475H26.5609Z" fill="white"/>
<path id="Vector_5" d="M49.8713 15.0586C46.7037 15.0586 44.3593 12.8353 44.3593 9.60498V9.56737C44.3593 6.55432 46.5031 4.07617 49.5746 4.07617C53.0975 4.07617 54.6521 6.96804 54.6521 9.15365C54.6521 10.0187 54.042 10.5912 53.2563 10.5912H47.3305C47.6272 11.9494 48.5717 12.6598 49.909 12.6598C50.7364 12.6598 51.4259 12.4049 52.0361 11.9494C52.2534 11.7906 52.4498 11.7112 52.7632 11.7112C53.4319 11.7112 53.925 12.221 53.925 12.8939C53.925 13.2867 53.7495 13.5834 53.5321 13.7798C52.6086 14.5654 51.405 15.0586 49.8713 15.0586ZM51.802 8.71904C51.6265 7.38176 50.8367 6.47491 49.5788 6.47491C48.3209 6.47491 47.5311 7.36086 47.2971 8.71904H51.8062H51.802Z" fill="white"/>
</g>
<g id="Group_3">
<path id="Vector_6" d="M60.5362 13.8383L56.0688 3.1484C55.9685 2.91019 55.8933 2.67617 55.8933 2.42125C55.8933 1.57292 56.5619 0.925171 57.4103 0.925171C58.1959 0.925171 58.7099 1.3765 58.944 1.98664L62.3875 10.9046L65.8727 1.89052C66.0692 1.3974 66.5999 0.925171 67.3312 0.925171C68.1587 0.925171 68.8273 1.5562 68.8273 2.38364C68.8273 2.62184 68.7479 2.87676 68.6685 3.05228L64.1594 13.8383C63.8459 14.5863 63.2734 15.0376 62.446 15.0376H62.2496C61.4221 15.0376 60.8538 14.5863 60.5362 13.8383Z" fill="white"/>
</g>
<g id="Group_4">
<path id="Vector_7" d="M70.0057 1.74845C70.0057 0.883393 70.7329 0.352661 71.6773 0.352661C72.6218 0.352661 73.3489 0.883393 73.3489 1.74845V1.78606C73.3489 2.65111 72.6218 3.20274 71.6773 3.20274C70.7329 3.20274 70.0057 2.65111 70.0057 1.78606V1.74845ZM70.1813 5.64745C70.1813 4.82001 70.8499 4.15137 71.6773 4.15137C72.5048 4.15137 73.1734 4.82001 73.1734 5.64745V13.4413C73.1734 14.2687 72.5048 14.9374 71.6773 14.9374C70.8499 14.9374 70.1813 14.2687 70.1813 13.4413V5.64745Z" fill="white"/>
</g>
<g id="Group_5">
<path id="Vector_8" d="M80.1231 15.0377H79.9643C79.1577 15.0377 78.6061 14.5237 78.2718 13.7381L75.0414 6.27857C74.962 6.08216 74.8826 5.82724 74.8826 5.55142C74.8826 4.84099 75.5304 4.15564 76.3411 4.15564C77.1518 4.15564 77.5823 4.60697 77.7996 5.2171L80.0646 11.3393L82.3672 5.17949C82.5636 4.66966 82.9773 4.15564 83.763 4.15564C84.5486 4.15564 85.2006 4.76577 85.2006 5.57232C85.2006 5.82724 85.1003 6.14484 85.0418 6.28275L81.8156 13.7423C81.4813 14.5112 80.9296 15.0419 80.1231 15.0419V15.0377Z" fill="white"/>
</g>
<g id="Group_6">
<path id="Vector_9" d="M85.9486 11.7906V11.753C85.9486 9.4504 87.6996 8.38893 90.1986 8.38893C91.2601 8.38893 92.029 8.56445 92.777 8.82355V8.64803C92.777 7.40687 92.0081 6.71733 90.512 6.71733C89.6846 6.71733 89.016 6.83435 88.4434 7.01404C88.2679 7.07255 88.1467 7.09344 88.0088 7.09344C87.3193 7.09344 86.7677 6.56271 86.7677 5.87318C86.7677 5.34245 87.102 4.89111 87.5742 4.71142C88.5187 4.3562 89.5425 4.15979 90.9383 4.15979C92.5723 4.15979 93.7549 4.59441 94.503 5.34245C95.2886 6.1281 95.6438 7.28986 95.6438 8.70654V13.5082C95.6438 14.3147 94.9961 14.9458 94.1854 14.9458C93.3203 14.9458 92.7478 14.3356 92.7478 13.7046V13.6837C92.0206 14.4903 91.0135 15.021 89.5592 15.021C87.57 15.021 85.936 13.8801 85.936 11.7948L85.9486 11.7906ZM92.8188 11.1011V10.5704C92.309 10.3363 91.6362 10.1775 90.909 10.1775C89.6303 10.1775 88.8404 10.6874 88.8404 11.636V11.6736C88.8404 12.4802 89.5091 12.9524 90.4744 12.9524C91.8702 12.9524 92.8147 12.1835 92.8147 11.1011H92.8188Z" fill="white"/>
</g>
</g>
</svg>
