<svg width="50" height="50" viewBox="0 0 50 50" fill="none" xmlns="http://www.w3.org/2000/svg">
<g id="Logo">
<path id="Vector" d="M37.4333 6.41668C33.9712 3.02384 29.7165 1.32495 24.6693 1.32495C22.8021 1.32495 20.9447 1.63204 19.1764 2.2264C19.0774 1.70138 18.6217 1.32495 18.0868 1.32495H8.32432C7.71509 1.32495 7.21979 1.82026 7.21979 2.42948V22.4249C7.52192 19.0568 8.99793 15.8968 11.3952 13.5094C13.4903 11.4341 16.2591 10.176 19.2012 9.9581C21.6529 9.67082 24.1196 9.56186 26.5862 9.62625C28.7407 9.72531 39.3155 11.9591 39.0183 12.0532C34.937 13.3559 32.6933 18.1702 31.9949 19.567C31.0191 21.6027 29.8205 23.5195 28.4238 25.2927C26.5466 27.5909 24.2582 29.2898 21.2666 29.9288C19.6816 30.2358 18.062 30.3151 16.4523 30.1715C13.9757 29.9981 13.5498 30.2309 11.0683 29.6761C10.9742 29.6761 10.885 29.6167 10.6919 29.5523C10.3353 26.8579 19.85 16.7784 27.7254 13.762C27.6709 13.7571 27.6115 13.7571 27.557 13.762C27.5124 13.767 27.4728 13.7818 27.4331 13.8017C13.5646 19.1509 11.0881 25.4363 9.97368 27.4027C9.10194 28.958 8.75028 30.6519 8.41347 32.4201C7.66061 36.3826 7.5665 40.4242 7.21979 44.4213V48.3838H19.9144V36.3479C21.4945 36.4915 24.5158 36.5609 25.2439 36.5609C29.9542 36.5609 34.0306 34.8174 37.468 31.3354C40.8163 28.0714 42.6786 23.5839 42.6291 18.9082C42.7182 14.2029 40.8361 9.67082 37.4333 6.41668Z" fill="white"/>
</g>
</svg>
