<svg width="16" height="16" viewBox="0 0 16 16" fill="none" xmlns="http://www.w3.org/2000/svg">
<g id="vuesax/linear/profile-2user">
<g id="profile-2user">
<path id="Vector" d="M6.10664 7.24634C6.03998 7.23967 5.95998 7.23967 5.88664 7.24634C4.29998 7.19301 3.03998 5.89301 3.03998 4.29301C3.03998 2.65967 4.35998 1.33301 5.99998 1.33301C7.63331 1.33301 8.95998 2.65967 8.95998 4.29301C8.95331 5.89301 7.69331 7.19301 6.10664 7.24634Z" stroke="#98A2B3" stroke-width="1.5" stroke-linecap="round" stroke-linejoin="round"/>
<path id="Vector_2" d="M10.94 2.66699C12.2333 2.66699 13.2733 3.71366 13.2733 5.00033C13.2733 6.26033 12.2733 7.28699 11.0267 7.33366C10.9733 7.32699 10.9133 7.32699 10.8533 7.33366" stroke="#98A2B3" stroke-width="1.5" stroke-linecap="round" stroke-linejoin="round"/>
<path id="Vector_3" d="M2.77335 9.70699C1.16002 10.787 1.16002 12.547 2.77335 13.6203C4.60669 14.847 7.61335 14.847 9.44669 13.6203C11.06 12.5403 11.06 10.7803 9.44669 9.70699C7.62002 8.48699 4.61335 8.48699 2.77335 9.70699Z" stroke="#98A2B3" stroke-width="1.5" stroke-linecap="round" stroke-linejoin="round"/>
<path id="Vector_4" d="M12.2267 13.333C12.7067 13.233 13.16 13.0397 13.5334 12.753C14.5734 11.973 14.5734 10.6863 13.5334 9.90634C13.1667 9.62634 12.72 9.43967 12.2467 9.33301" stroke="#98A2B3" stroke-width="1.5" stroke-linecap="round" stroke-linejoin="round"/>
</g>
</g>
</svg>
