<svg width="16" height="16" viewBox="0 0 16 16" fill="none" xmlns="http://www.w3.org/2000/svg">
<g id="setting">
<g id="vuesax/outline/setting">
<g id="setting_2">
<path id="Vector" d="M7.99995 15.0868C7.55329 15.0868 7.09995 14.9868 6.74662 14.7801L3.07995 12.6668C1.58662 11.6601 1.49329 11.5068 1.49329 9.92678V6.07345C1.49329 4.49345 1.57995 4.34011 3.04662 3.34678L6.73995 1.21345C7.43995 0.806781 8.53995 0.806781 9.23995 1.21345L12.92 3.33345C14.4133 4.34011 14.5066 4.49345 14.5066 6.07345V9.92011C14.5066 11.5001 14.42 11.6534 12.9533 12.6468L9.25995 14.7801C8.89995 14.9868 8.44662 15.0868 7.99995 15.0868ZM7.99995 1.91345C7.71995 1.91345 7.44662 1.96678 7.25329 2.08011L3.58662 4.20011C2.49995 4.93345 2.49995 4.93345 2.49995 6.07345V9.92011C2.49995 11.0601 2.49995 11.0601 3.61329 11.8134L7.25329 13.9134C7.64662 14.1401 8.35995 14.1401 8.75329 13.9134L12.42 11.7934C13.5 11.0601 13.5 11.0601 13.5 9.92011V6.07345C13.5 4.93345 13.5 4.93345 12.3866 4.18011L8.74662 2.08011C8.55329 1.96678 8.27995 1.91345 7.99995 1.91345Z" fill="#F1FAFE"/>
<path id="Vector_2" d="M8 10.5C6.62 10.5 5.5 9.38 5.5 8C5.5 6.62 6.62 5.5 8 5.5C9.38 5.5 10.5 6.62 10.5 8C10.5 9.38 9.38 10.5 8 10.5ZM8 6.5C7.17333 6.5 6.5 7.17333 6.5 8C6.5 8.82667 7.17333 9.5 8 9.5C8.82667 9.5 9.5 8.82667 9.5 8C9.5 7.17333 8.82667 6.5 8 6.5Z" fill="#F1FAFE"/>
</g>
</g>
</g>
</svg>
