<svg width="20" height="20" viewBox="0 0 20 20" fill="none" xmlns="http://www.w3.org/2000/svg">
<g id="vuesax/outline/task-square">
<g id="task-square">
<path id="Vector" d="M14.6834 8.0166H10.3083C9.96668 8.0166 9.68335 7.73327 9.68335 7.3916C9.68335 7.04993 9.96668 6.7666 10.3083 6.7666H14.6834C15.025 6.7666 15.3084 7.04993 15.3084 7.3916C15.3084 7.73327 15.0334 8.0166 14.6834 8.0166Z" fill="#667085"/>
<path id="Vector_2" d="M5.93322 8.64977C5.77489 8.64977 5.61655 8.59144 5.49155 8.46644L4.86655 7.84144C4.62489 7.59977 4.62489 7.19977 4.86655 6.95811C5.10822 6.71644 5.50822 6.71644 5.74989 6.95811L5.93322 7.14144L7.36655 5.70811C7.60822 5.46644 8.00822 5.46644 8.24989 5.70811C8.49155 5.94977 8.49155 6.34977 8.24989 6.59144L6.37489 8.46644C6.25822 8.58311 6.09989 8.64977 5.93322 8.64977Z" fill="#667085"/>
<path id="Vector_3" d="M14.6834 13.8501H10.3083C9.96668 13.8501 9.68335 13.5668 9.68335 13.2251C9.68335 12.8834 9.96668 12.6001 10.3083 12.6001H14.6834C15.025 12.6001 15.3084 12.8834 15.3084 13.2251C15.3084 13.5668 15.0334 13.8501 14.6834 13.8501Z" fill="#667085"/>
<path id="Vector_4" d="M5.93322 14.4833C5.77489 14.4833 5.61655 14.4249 5.49155 14.2999L4.86655 13.6749C4.62489 13.4333 4.62489 13.0333 4.86655 12.7916C5.10822 12.5499 5.50822 12.5499 5.74989 12.7916L5.93322 12.9749L7.36655 11.5416C7.60822 11.2999 8.00822 11.2999 8.24989 11.5416C8.49155 11.7833 8.49155 12.1833 8.24989 12.4249L6.37489 14.2999C6.25822 14.4166 6.09989 14.4833 5.93322 14.4833Z" fill="#667085"/>
<path id="Vector_5" d="M12.5001 18.9582H7.50008C2.97508 18.9582 1.04175 17.0248 1.04175 12.4998V7.49984C1.04175 2.97484 2.97508 1.0415 7.50008 1.0415H12.5001C17.0251 1.0415 18.9584 2.97484 18.9584 7.49984V12.4998C18.9584 17.0248 17.0251 18.9582 12.5001 18.9582ZM7.50008 2.2915C3.65841 2.2915 2.29175 3.65817 2.29175 7.49984V12.4998C2.29175 16.3415 3.65841 17.7082 7.50008 17.7082H12.5001C16.3417 17.7082 17.7084 16.3415 17.7084 12.4998V7.49984C17.7084 3.65817 16.3417 2.2915 12.5001 2.2915H7.50008Z" fill="#667085"/>
</g>
</g>
</svg>
